<?xml version="1.0" encoding="UTF-8" standalone="no"?>
<!-- Created with Inkscape (http://www.inkscape.org/) -->

<svg
   xmlns:dc="http://purl.org/dc/elements/1.1/"
   xmlns:cc="http://creativecommons.org/ns#"
   xmlns:rdf="http://www.w3.org/1999/02/22-rdf-syntax-ns#"
   xmlns:svg="http://www.w3.org/2000/svg"
   xmlns="http://www.w3.org/2000/svg"
   xmlns:sodipodi="http://sodipodi.sourceforge.net/DTD/sodipodi-0.dtd"
   xmlns:inkscape="http://www.inkscape.org/namespaces/inkscape"
   width="354.34375"
   height="354.34375"
   id="svg2"
   version="1.1"
   inkscape:version="0.48.4 r9939"
   sodipodi:docname="logo.svg">
  <defs
     id="defs4" />
  <sodipodi:namedview
     id="base"
     pagecolor="#ffffff"
     bordercolor="#666666"
     borderopacity="1.0"
     inkscape:pageopacity="0.0"
     inkscape:pageshadow="2"
     inkscape:zoom="0.49497475"
     inkscape:cx="-184.73697"
     inkscape:cy="-122.86249"
     inkscape:document-units="px"
     inkscape:current-layer="layer1"
     showgrid="false"
     units="cm"
     inkscape:window-width="1440"
     inkscape:window-height="876"
     inkscape:window-x="0"
     inkscape:window-y="24"
     inkscape:window-maximized="1"
     fit-margin-top="0"
     fit-margin-left="0"
     fit-margin-right="0"
     fit-margin-bottom="0" />
  <metadata
     id="metadata7">
    <rdf:RDF>
      <cc:Work
         rdf:about="">
        <dc:format>image/svg+xml</dc:format>
        <dc:type
           rdf:resource="http://purl.org/dc/dcmitype/StillImage" />
      </cc:Work>
    </rdf:RDF>
  </metadata>
  <g
     inkscape:label="Layer 1"
     inkscape:groupmode="layer"
     id="layer1"
     transform="translate(-20.187497,-731.09375)">
    <rect
       style="opacity:0.98999999;fill:#33b5e5;fill-opacity:1;stroke:none"
       id="rect3761"
       width="354.33072"
       height="354.33072"
       x="20.194012"
       y="731.10028"
       ry="73.407158"
       rx="59.055115" />
    <path
       style="opacity:0.98999999;fill:#ffffff;fill-opacity:1;stroke:#ffffff;stroke-width:21.67970276;stroke-linecap:round;stroke-linejoin:round;stroke-miterlimit:4;stroke-opacity:1;stroke-dasharray:none"
       id="path3810"
       d="m 85.499464,815.29653 c 4.163775,11.15693 8.884217,22.10349 12.682805,33.40101 1.813553,5.39376 3.428391,10.8523 5.142591,16.27845 11.42176,37.54252 21.89695,75.35803 32.36475,113.17366 3.08393,10.93963 6.06092,21.91075 9.39624,32.77775 0.63033,2.0536 1.19882,4.1298 1.94678,6.1436 1.39831,3.7648 0.46259,3.3743 2.76328,3.5009 -4.76702,1.8566 -9.23706,6.2968 -14.30102,5.5702 -2.52354,-0.3623 1.63337,-4.833 2.31025,-7.291 1.18766,-4.3126 2.2064,-8.67 3.28106,-13.0123 1.87512,-7.57635 7.5002,-30.8978 9.27475,-37.82508 1.86263,-7.27126 3.85014,-14.50993 5.77521,-21.76477 8.77927,-32.94271 18.64659,-65.58398 29.46669,-97.91092 2.18287,-5.99237 4.16532,-12.12841 7.0066,-17.86068 0.41369,-0.8346 0.62298,-1.90255 1.3976,-2.41991 5.35529,-3.5769 10.73863,-7.29278 16.71949,-9.68081 0.90333,-0.36068 1.21751,1.51724 1.82628,2.27586 0.43573,1.23879 0.9491,2.45294 1.30719,3.71636 2.24642,7.92598 3.55195,16.257 5.00894,24.33913 7.46268,41.39643 -2.78724,-14.55193 5.68713,31.51437 6.23365,33.56356 12.62361,67.10284 19.92826,100.45181 3.48476,14.08432 5.79573,28.60234 10.71468,42.29914 0.78303,0.2437 0.40003,2.171 1.27183,2.5423 0.1793,0.076 0.3361,-0.6441 0.15911,-0.5625 -5.10885,2.3539 -9.622,6.3471 -15.13527,7.463 -1.64718,0.3335 1.20937,-3.1388 1.70524,-4.7445 0.90534,-2.9318 1.66399,-5.9069 2.49601,-8.8603 1.19268,-4.5239 2.41319,-9.0406 3.57805,-13.5718 14.12981,-54.96251 -5.74463,21.7055 9.77059,-39.21497 6.01756,-23.6278 12.44493,-47.14878 18.9577,-70.64355 8.86058,-31.87839 18.23675,-63.60794 27.81993,-95.27509 2.71082,-8.57579 1.4397,-4.62402 3.79629,-11.86078 0,0 15.60445,-7.27121 15.60445,-7.27121 l 0,0 c -3.05119,7.49712 -1.42751,3.40674 -4.8304,12.28713 -11.49685,31.88785 -21.70052,64.21325 -31.14564,96.76735 -11.07801,40.20747 -21.6656,80.57809 -28.82721,121.70272 -0.52252,2.829 -1.04125,5.6588 -1.56757,8.487 -0.28872,1.5516 0.3107,3.6139 -0.87755,4.6524 -10.69845,9.3511 -15.76597,16.4048 -18.41884,6.651 -3.46193,-14.4436 -5.14598,-29.2729 -8.24778,-43.79312 -6.47874,-33.58083 -12.47836,-67.25435 -19.38185,-100.75268 -3.02534,-13.92041 -3.68646,-17.46231 -6.97232,-30.79108 -1.89851,-7.70117 -3.72867,-15.74461 -6.50866,-23.20892 -0.37662,-1.01124 -0.9009,-1.96117 -1.35134,-2.94175 -5.15562,-3.47014 -2.09288,-1.10809 13.25221,-9.10206 0.89121,-0.46427 -1.33552,1.51305 -1.87355,2.36175 -1.36606,2.15485 -4.30906,8.27821 -5.13796,10.13655 -1.21456,2.72291 -2.30989,5.49746 -3.46482,8.24619 -12.34964,32.40725 -23.15043,65.41851 -31.99547,98.95914 -4.83587,19.43559 -9.49982,38.7992 -12.99602,58.52833 -0.73456,4.14505 -1.32199,8.31495 -2.01348,12.46735 -0.39789,2.3894 0.43721,5.4242 -1.25461,7.1577 -4.81794,4.9365 -11.40151,7.7676 -17.10227,11.6514 -0.40896,-0.4663 -0.97477,-0.832 -1.22686,-1.3986 -0.78362,-1.7611 -2.38092,-9.4696 -2.57239,-10.318 -2.53551,-11.2359 -4.97161,-22.49502 -7.74146,-33.67674 -9.35608,-38.07374 -18.97602,-76.17789 -32.201171,-113.12794 -6.2968,-16.23156 -12.632624,-32.51619 -21.283176,-47.67833 0,0 16.016701,-8.94416 16.016701,-8.94416 z"
       inkscape:connector-curvature="0" />
  </g>
</svg>
